# Blender 4.0.2
# www.blender.org
mtllib AircraftRotor.mtl
o AirCraft
v -0.024312 5.070599 1.224314
v 0.238015 5.070599 1.375768
v 0.238015 5.070599 1.678678
v -0.024312 5.070599 1.830132
v -0.286639 5.070599 1.678678
v -0.286639 5.070599 1.375768
v 0.552139 5.070599 1.194410
v -0.024312 5.070599 0.861596
v 0.552139 5.070599 1.860039
v -0.024312 5.070599 2.192853
v -0.600764 5.070599 1.860039
v -0.600764 5.070599 1.194410
v 0.481531 5.652434 1.235175
v -0.024312 5.652434 0.943126
v 0.481531 5.652434 1.819273
v -0.024312 5.652434 2.111322
v -0.530156 5.652434 1.819273
v -0.530156 5.652434 1.235175
v 0.522638 5.430624 1.890941
v 0.522638 5.292409 1.890941
v 0.522635 5.430624 22.197943
v 0.522635 5.292409 22.197943
v -0.571262 5.430624 1.890941
v -0.571262 5.292409 1.890941
v -0.571265 5.430624 22.197943
v -0.571265 5.292409 22.197943
v -0.571262 5.430624 1.163506
v -0.571262 5.292410 1.163506
v -0.571262 5.430624 -19.143497
v -0.571262 5.292410 -19.143497
v 0.522638 5.430624 1.163506
v 0.522638 5.292410 1.163506
v 0.522638 5.430624 -19.143497
v 0.522638 5.292410 -19.143497
v -0.388031 5.430624 2.074175
v -0.388031 5.292410 2.074175
v -20.695030 5.430624 2.074173
v -20.695030 5.292410 2.074173
v -0.388031 5.430624 0.980275
v -0.388031 5.292410 0.980275
v -20.695030 5.430624 0.980273
v -20.695030 5.292410 0.980273
v 0.339406 5.430624 0.980275
v 0.339406 5.292410 0.980275
v 20.646406 5.430624 0.980275
v 20.646406 5.292410 0.980275
v 0.339406 5.430624 2.074175
v 0.339406 5.292410 2.074175
v 20.646406 5.430624 2.074175
v 20.646406 5.292410 2.074175
v -0.024312 4.668947 1.224314
v 0.238015 4.664034 1.375768
v 0.238015 4.673943 1.678678
v -0.024312 4.688765 1.830132
v -0.286639 4.693678 1.678678
v -0.286639 4.683769 1.375768
v 0.522635 5.292409 20.911749
v 0.522635 5.334485 22.197943
v -0.571265 5.375632 22.197943
v -0.571265 5.292409 19.653912
v -19.534227 5.430624 2.074173
v -15.859840 5.292410 2.074173
v -20.485569 5.430624 0.980273
v -16.811171 5.292410 0.980273
v 0.238015 4.642364 1.375768
v 0.238015 4.642763 1.678678
v -0.024312 4.647458 1.830132
v -0.286639 4.651753 1.678678
v -0.286639 4.651354 1.375768
v -0.024312 4.646660 1.224314
vn -0.0171 -0.9999 0.0013
vn 0.5000 -0.0000 -0.8660
vn 1.0000 -0.0000 -0.0000
vn 0.5000 -0.0000 0.8660
vn -0.5000 -0.0000 0.8660
vn -0.0000 -1.0000 -0.0000
vn -1.0000 -0.0000 -0.0000
vn -0.5000 -0.0000 -0.8660
vn -0.9927 0.1205 -0.0000
vn -0.0000 1.0000 -0.0000
vn 0.4964 0.1205 0.8597
vn 0.4964 0.1205 -0.8597
vn -0.4964 0.1205 -0.8597
vn -0.4964 0.1205 0.8597
vn 0.9927 0.1205 -0.0000
vn -0.0000 -0.0000 1.0000
vn -0.0000 -0.0000 -1.0000
vt -0.000000 0.861560
vt 0.833333 0.860157
vt 0.666667 0.860288
vt 0.500000 0.861821
vt 0.333333 0.863223
vt 0.166667 0.863093
vt 1.000000 0.868838
vt 1.000000 1.000000
vt 0.833333 1.000000
vt 0.833333 0.867234
vt 0.666667 1.000000
vt 0.666667 0.870470
vt 0.500000 1.000000
vt 0.500000 0.875310
vt 0.333333 1.000000
vt 0.333333 0.876914
vt 0.166667 1.000000
vt 0.166667 0.873678
vt -0.000000 1.000000
vt -0.000000 0.868838
vt 0.457846 0.370000
vt 0.250000 0.490000
vt 0.042154 0.370000
vt 0.042154 0.130000
vt 0.250000 0.010000
vt 0.457846 0.130000
vt 0.625000 0.234166
vt 0.548895 0.250000
vt 0.625000 0.250000
vt 0.474468 0.500000
vt 0.625000 0.500000
vt 0.625000 0.531320
vt 0.375000 0.750000
vt 0.375000 1.000000
vt 0.625000 1.000000
vt 0.625000 0.750000
vt 0.125000 0.500000
vt 0.125000 0.750000
vt 0.375000 0.500000
vt 0.875000 0.750000
vt 0.875000 0.515834
vt 0.375000 0.000000
vt 0.375000 0.250000
vt 0.625000 0.000000
vt 0.875000 0.500000
vt 0.375000 0.235709
vt 0.625000 0.190474
vt 0.375000 0.502579
vt 0.625000 0.547814
vt 0.125000 0.514291
vt 0.875000 0.559526
vt 1.000000 0.861560
s 0
usemtl Black_Aircraft
f 70/1/1 65/2/1 66/3/1 67/4/1 68/5/1 69/6/1
f 51/7/2 1/8/2 2/9/2 52/10/2
f 52/10/3 2/9/3 3/11/3 53/12/3
f 53/12/4 3/11/4 4/13/4 54/14/4
f 54/14/5 4/13/5 5/15/5 55/16/5
f 5/15/6 4/13/6 10/13/6 11/15/6
f 55/16/7 5/15/7 6/17/7 56/18/7
f 56/18/8 6/17/8 1/19/8 51/20/8
f 12/17/9 11/15/9 17/15/9 18/17/9
f 3/11/6 2/9/6 7/9/6 9/11/6
f 6/17/6 5/15/6 11/15/6 12/17/6
f 2/9/6 1/8/6 8/8/6 7/9/6
f 4/13/6 3/11/6 9/11/6 10/13/6
f 1/19/6 6/17/6 12/17/6 8/19/6
f 13/21/10 14/22/10 18/23/10 17/24/10 16/25/10 15/26/10
f 10/13/11 9/11/11 15/11/11 16/13/11
f 7/9/12 8/8/12 14/8/12 13/9/12
f 8/19/13 12/17/13 18/17/13 14/19/13
f 11/15/14 10/13/14 16/13/14 17/15/14
f 9/11/15 7/9/15 13/9/15 15/11/15
f 68/5/7 55/16/7 56/18/7 69/6/7
f 67/4/5 54/14/5 55/16/5 68/5/5
f 66/3/4 53/12/4 54/14/4 67/4/4
f 65/2/3 52/10/3 53/12/3 66/3/3
f 70/52/2 51/7/2 52/10/2 65/2/2
f 69/6/8 56/18/8 51/20/8 70/1/8
usemtl Black_Aircraft
f 57/27/3 58/28/3 22/29/3
f 58/28/16 59/30/16 26/31/16 22/29/16
f 59/30/7 60/32/7 26/31/7
f 23/33/17 19/34/17 20/35/17 24/36/17
f 21/37/10 19/38/10 23/33/10 25/39/10
f 60/32/6 24/36/6 20/40/6 57/41/6
f 27/42/7 29/43/7 30/29/7 28/44/7
f 29/43/17 33/39/17 34/31/17 30/29/17
f 33/39/3 31/33/3 32/36/3 34/31/3
f 31/33/16 27/34/16 28/35/16 32/36/16
f 29/37/10 27/38/10 31/33/10 33/39/10
f 34/31/6 32/36/6 28/40/6 30/45/6
f 61/46/16 37/43/16 38/29/16 62/47/16
f 37/43/7 41/39/7 42/31/7 38/29/7
f 63/48/17 39/33/17 40/36/17 64/49/17
f 39/33/3 35/34/3 36/35/3 40/36/3
f 61/50/10 35/38/10 39/33/10 63/48/10
f 64/49/6 40/36/6 36/40/6 62/51/6
f 43/42/17 45/43/17 46/29/17 44/44/17
f 45/43/3 49/39/3 50/31/3 46/29/3
f 49/39/16 47/33/16 48/36/16 50/31/16
f 47/33/7 43/34/7 44/35/7 48/36/7
f 45/37/10 43/38/10 47/33/10 49/39/10
f 50/31/6 48/36/6 44/40/6 46/45/6
f 41/39/17 63/48/17 64/49/17 42/31/17
f 42/31/6 64/49/6 62/51/6 38/45/6
f 35/42/16 61/46/16 62/47/16 36/44/16
f 37/37/10 61/50/10 63/48/10 41/39/10
f 25/39/7 23/33/7 24/36/7 60/32/7 59/30/7
f 21/43/16 25/39/16 59/30/16 58/28/16
f 19/42/3 21/43/3 58/28/3 57/27/3 20/44/3
f 26/31/6 60/32/6 57/41/6 22/45/6
